<svg xmlns="http://www.w3.org/2000/svg" viewBox="0 0 880 440" width="880" height="440" font-family="DM Sans Variable, DM Sans, Inter, system-ui, sans-serif" role="img"><title>Local SKD assembly meets a content rule that a finished import cannot</title><text x="56" y="34" font-size="11.5" fill="#8A97A6" font-weight="700" text-anchor="start" letter-spacing="1.1">A TENDER WITH A LOCAL-CONTENT RULE</text><rect x="56" y="56" width="366" height="158" rx="10" fill="#EEF1F4" stroke="#DCE1E6" stroke-width="1.5"/><text x="84" y="90" font-size="15" fill="#5A6675" font-weight="700" text-anchor="start" letter-spacing="0">Finished device, imported</text><rect x="84" y="108" width="310" height="44" rx="10" fill="#FFFFFF" stroke="#DCE1E6" stroke-width="1.5"/><text x="239" y="136" font-size="13.5" fill="#8A97A6" font-weight="400" text-anchor="middle" letter-spacing="0">built entirely abroad</text><path d="M88 178 l8 8 M96 178 l-8 8" stroke="#B45309" stroke-width="2.2" stroke-linecap="round"/><text x="112" y="188" font-size="14" fill="#B45309" font-weight="600" text-anchor="start" letter-spacing="0">0% local content — fails the rule</text><rect x="458" y="56" width="366" height="158" rx="10" fill="#E3F0FA" stroke="#80BCE2" stroke-width="2"/><text x="486" y="90" font-size="15" fill="#0A4C84" font-weight="700" text-anchor="start" letter-spacing="0">SKD kit, assembled in-country</text><rect x="486" y="108" width="138" height="44" rx="10" fill="#FFFFFF" stroke="#80BCE2" stroke-width="1.5"/><text x="555" y="136" font-size="13" fill="#0A4C84" font-weight="400" text-anchor="middle" letter-spacing="0">kit imported</text><path d="M632 130 h17" stroke="#0B5FA5" stroke-width="2.5" stroke-linecap="round"/><path d="M658 130 l-10 -6 v12 z" fill="#0B5FA5"/><rect x="666" y="108" width="130" height="44" rx="10" fill="#0B5FA5" stroke="#0A4C84" stroke-width="1.5"/><text x="731" y="136" font-size="13" fill="#FFFFFF" font-weight="600" text-anchor="middle" letter-spacing="0">assembled here</text><path d="M489 182 l3.6 3.9 l7.6 -8.6" stroke="#0B5FA5" stroke-width="2.4" fill="none" stroke-linecap="round" stroke-linejoin="round"/><text x="514" y="188" font-size="14" fill="#0A4C84" font-weight="600" text-anchor="start" letter-spacing="0">Counts as locally manufactured</text><text x="56" y="264" font-size="11.5" fill="#8A97A6" font-weight="700" text-anchor="start" letter-spacing="1.1">WHAT WE SUPPLY FOR THE BID</text><rect x="56" y="284" width="182" height="84" rx="10" fill="#FFFFFF" stroke="#DDE3EA" stroke-width="1.5"/><path d="M75 316 l3.6 3.9 l7.6 -8.6" stroke="#0B5FA5" stroke-width="2.4" fill="none" stroke-linecap="round" stroke-linejoin="round"/><text x="76" y="344" font-size="13" fill="#5A6675" font-weight="600" text-anchor="start" letter-spacing="0">Technical</text><text x="76" y="361" font-size="13" fill="#5A6675" font-weight="600" text-anchor="start" letter-spacing="0">documentation</text><rect x="252" y="284" width="182" height="84" rx="10" fill="#FFFFFF" stroke="#DDE3EA" stroke-width="1.5"/><path d="M271 316 l3.6 3.9 l7.6 -8.6" stroke="#0B5FA5" stroke-width="2.4" fill="none" stroke-linecap="round" stroke-linejoin="round"/><text x="272" y="344" font-size="13" fill="#5A6675" font-weight="600" text-anchor="start" letter-spacing="0">Bill of materials &amp;</text><text x="272" y="361" font-size="13" fill="#5A6675" font-weight="600" text-anchor="start" letter-spacing="0">origin</text><rect x="448" y="284" width="182" height="84" rx="10" fill="#FFFFFF" stroke="#DDE3EA" stroke-width="1.5"/><path d="M467 316 l3.6 3.9 l7.6 -8.6" stroke="#0B5FA5" stroke-width="2.4" fill="none" stroke-linecap="round" stroke-linejoin="round"/><text x="468" y="344" font-size="13" fill="#5A6675" font-weight="600" text-anchor="start" letter-spacing="0">Assembly process &amp;</text><text x="468" y="361" font-size="13" fill="#5A6675" font-weight="600" text-anchor="start" letter-spacing="0">training</text><rect x="644" y="284" width="182" height="84" rx="10" fill="#FFFFFF" stroke="#DDE3EA" stroke-width="1.5"/><path d="M663 316 l3.6 3.9 l7.6 -8.6" stroke="#0B5FA5" stroke-width="2.4" fill="none" stroke-linecap="round" stroke-linejoin="round"/><text x="664" y="344" font-size="13" fill="#5A6675" font-weight="600" text-anchor="start" letter-spacing="0">Long-term supply</text></svg>